<svg xmlns="http://www.w3.org/2000/svg" width="788" height="223" viewBox="0 0 788 223" version="1.1"><path d="M 238.500 43.486 C 232.377 45.975, 225.971 51.846, 226.030 54.917 C 226.054 56.123, 226.324 56.024, 227.167 54.500 C 229.244 50.745, 232.497 47.803, 237.500 45.158 C 242.117 42.717, 243.419 42.517, 254.500 42.549 C 264.591 42.578, 267.415 42.946, 272.250 44.863 C 275.413 46.118, 278 47.438, 278 47.797 C 278 48.156, 276.831 51.431, 275.402 55.074 L 272.803 61.697 267.152 59.372 C 259.769 56.336, 248.176 56.043, 245.655 58.829 C 243.674 61.017, 243.528 63.363, 245.281 64.818 C 245.985 65.403, 251.048 67.067, 256.531 68.516 C 274.473 73.258, 279.965 77.534, 280.783 87.398 C 281.834 100.071, 271.712 108.811, 254.871 109.772 C 240.734 110.578, 224.276 106.150, 224.657 101.643 C 224.754 100.485, 224.460 100.140, 223.874 100.726 C 223.357 101.243, 223.183 102.313, 223.487 103.104 C 225.825 109.198, 251.944 113.285, 264.576 109.533 C 275.326 106.341, 282 98.240, 282 88.384 C 282 78.112, 274.766 71.807, 258.569 67.960 C 247.713 65.382, 245 64.165, 245 61.875 C 245 58.901, 248.699 57.717, 256.411 58.221 C 260.981 58.519, 265.023 59.464, 267.784 60.880 C 270.141 62.087, 272.464 62.831, 272.948 62.532 C 273.432 62.233, 275.058 58.854, 276.560 55.023 C 279.877 46.569, 279.503 45.853, 270.275 43.003 C 260.633 40.025, 246.487 40.240, 238.500 43.486 M 315.454 43.258 C 315.189 43.950, 315.091 59.138, 315.236 77.008 L 315.500 109.500 324.984 109.791 C 337.090 110.162, 337 110.270, 337 95.309 L 337 84 347.970 84 L 358.940 84 359.220 96.750 L 359.500 109.500 369.196 109.786 C 377.764 110.038, 379.006 109.857, 379.878 108.228 C 380.480 107.103, 380.782 93.956, 380.653 74.443 L 380.442 42.500 369.971 42.500 L 359.500 42.500 359.219 54.750 L 358.938 67 347.969 67 L 337 67 337 56.082 C 337 50.077, 336.727 44.452, 336.393 43.582 C 335.896 42.286, 333.989 42, 325.862 42 C 318.810 42, 315.797 42.364, 315.454 43.258 M 438.624 44.760 C 433.666 54.347, 411.032 107.640, 411.452 108.736 C 411.843 109.754, 414.293 110.004, 421.711 109.786 L 431.457 109.500 434.225 103.721 L 436.993 97.942 450.099 98.221 L 463.205 98.500 465.412 104 L 467.619 109.500 477.827 109.785 C 485.628 110.003, 488.157 109.755, 488.549 108.734 C 488.972 107.630, 471.592 66.625, 462.489 47.250 L 460.022 42 450.037 42 C 440.146 42, 440.038 42.026, 438.624 44.760 M 519.454 43.258 C 519.189 43.950, 519.091 59.138, 519.236 77.008 L 519.500 109.500 529.500 109.500 L 539.500 109.500 540 94.017 L 540.500 78.534 550.424 90.517 C 567.495 111.130, 566.035 110, 575.596 110 C 582.142 110, 583.908 109.682, 584.393 108.418 C 585.473 105.603, 585.077 46.013, 583.965 43.934 C 583.053 42.231, 581.799 42, 573.465 42 L 564 42 563.958 58.250 L 563.917 74.500 560.340 70.500 C 558.373 68.300, 552.299 60.987, 546.842 54.250 L 536.920 42 528.429 42 C 522.529 42, 519.790 42.384, 519.454 43.258 M 90.448 76 C 90.448 94.425, 90.583 101.963, 90.748 92.750 C 90.913 83.537, 90.913 68.463, 90.748 59.250 C 90.583 50.037, 90.448 57.575, 90.448 76 M 164.692 52.250 C 160.008 57.337, 156.312 61.638, 156.478 61.807 C 156.777 62.110, 163.181 55.442, 170.458 47.250 C 177.640 39.164, 173.175 43.036, 164.692 52.250 M 316 76 L 316 109 325.500 109 L 335 109 335 96 L 335 83 347.470 83 L 359.940 83 360.220 95.750 L 360.500 108.500 369.750 108.788 L 379 109.075 379 76.038 L 379 43 369.500 43 L 360 43 360 55.500 L 360 68 347.500 68 L 335 68 335 55.500 L 335 43 325.500 43 L 316 43 316 76 M 426.810 74.250 C 419.282 91.438, 412.816 106.304, 412.440 107.288 C 411.809 108.940, 412.492 109.054, 421.492 108.788 L 431.228 108.500 433.261 103 C 434.379 99.975, 435.790 97.154, 436.397 96.731 C 437.004 96.308, 443.345 96.083, 450.489 96.231 L 463.479 96.500 465.989 102.739 L 468.500 108.978 478.250 108.989 C 483.613 108.995, 488 108.782, 488 108.514 C 488 107.955, 475.770 80.096, 466.398 59.308 C 462.879 51.502, 460 44.639, 460 44.058 C 460 43.386, 456.437 43, 450.248 43 L 440.496 43 426.810 74.250 M 520.236 75.750 L 520.500 108.500 529.750 108.788 L 539 109.075 539 92.538 C 539 83.442, 539.337 76.035, 539.750 76.079 C 540.163 76.122, 546.575 83.536, 554 92.553 L 567.500 108.949 575.250 108.974 L 583 109 583 76 L 583 43 574.023 43 L 565.046 43 564.773 60.595 L 564.500 78.189 550.500 60.644 L 536.500 43.098 528.236 43.049 L 519.973 43 520.236 75.750 M 666.047 49.114 C 666.021 49.452, 667.329 52.602, 668.954 56.114 C 670.579 59.626, 671.908 61.825, 671.907 61 C 671.906 59.554, 666.143 47.865, 666.047 49.114 M 445.667 71.667 C 443.579 76.912, 442.070 81.403, 442.313 81.646 C 442.556 81.890, 446.138 81.956, 450.271 81.794 L 457.788 81.500 454.131 72.320 C 452.119 67.271, 450.246 62.913, 449.968 62.635 C 449.690 62.357, 447.754 66.421, 445.667 71.667 M 151.554 66.822 L 148.607 70.500 152.304 67.054 C 156.123 63.493, 156.525 62.949, 155.250 63.072 C 154.838 63.112, 153.174 64.799, 151.554 66.822 M 172.500 68 C 170.352 70.200, 169.023 71.962, 169.547 71.915 C 170.464 71.834, 177.661 64, 176.819 64 C 176.592 64, 174.648 65.800, 172.500 68 M 446.606 72.511 C 445.173 76.091, 444 79.466, 444 80.011 C 444 80.555, 446.730 81, 450.067 81 C 455.775 81, 456.095 80.876, 455.469 78.901 C 454.419 75.595, 450.069 66, 449.619 66 C 449.396 66, 448.040 68.930, 446.606 72.511 M 677.546 75.700 C 680.006 81.262, 681 82.988, 681 81.695 C 681 80.515, 676.116 70, 675.568 70 C 675.269 70, 676.160 72.565, 677.546 75.700 M 226 71.788 C 226 73.539, 230.157 78.029, 233.338 79.716 C 235.077 80.639, 241.629 82.767, 247.898 84.446 C 260.307 87.771, 263.203 89.817, 259.500 92.643 C 256.302 95.084, 242.948 94.044, 235.876 90.803 C 232.783 89.386, 229.819 88.513, 229.290 88.863 C 228.179 89.599, 225.788 96.121, 226.404 96.737 C 226.631 96.964, 227.408 95.515, 228.130 93.516 C 229.030 91.029, 229.926 90.031, 230.972 90.354 C 231.812 90.613, 235.076 91.764, 238.225 92.913 C 244.472 95.190, 256.677 95.778, 260.066 93.965 C 262.248 92.797, 262.650 88.784, 260.743 87.201 C 260.051 86.627, 254.810 84.973, 249.096 83.524 C 236.922 80.438, 232.226 78.246, 228.626 73.967 C 227.182 72.251, 226 71.270, 226 71.788 M 628.611 77.111 C 627.141 80.500, 626.104 83.437, 626.305 83.638 C 626.506 83.839, 627.869 81.227, 629.333 77.833 C 630.798 74.439, 631.836 71.502, 631.640 71.306 C 631.444 71.110, 630.081 73.722, 628.611 77.111 M 169.908 74.500 C 170.482 75.600, 172.355 78.075, 174.071 80 C 176.710 82.961, 176.872 83.038, 175.123 80.500 C 171.952 75.898, 168.666 72.117, 169.908 74.500 M 184.721 93.877 C 196.731 109.126, 197.128 109.606, 196.288 107.887 C 194.974 105.197, 178.556 84.131, 177.721 84.063 C 177.292 84.029, 180.442 88.445, 184.721 93.877 M 152.196 89.298 C 150.438 91.111, 149.007 93.024, 149.015 93.548 C 149.023 94.071, 150.514 92.745, 152.329 90.601 L 155.628 86.702 161.878 94.351 C 165.316 98.558, 168.340 102, 168.598 102 C 169.239 102, 156.642 86.125, 155.946 86.055 C 155.642 86.025, 153.954 87.484, 152.196 89.298 M 619.680 96.930 C 614.013 108.920, 613.888 110.051, 618.250 109.850 C 621.339 109.708, 621.362 109.680, 618.705 109.279 C 615.396 108.781, 615.404 108.733, 621.120 96.361 C 623.306 91.631, 624.929 87.596, 624.727 87.394 C 624.526 87.192, 622.255 91.484, 619.680 96.930 M 640.480 96.765 C 639.424 97.525, 636.966 102.557, 637.044 103.797 C 637.069 104.184, 637.979 102.813, 639.068 100.750 L 641.048 97 654.049 97 C 666.996 97, 667.053 97.010, 668 99.500 C 669.063 102.295, 670.293 102.998, 669.313 100.250 C 667.880 96.230, 667.056 96, 654.128 96.015 C 647.182 96.024, 641.041 96.361, 640.480 96.765 M 649.904 103.819 C 637.086 110.291, 636.908 145.828, 649.520 180.480 C 653.574 191.618, 653.683 191.571, 658.788 176.500 C 662.383 165.889, 665.463 152.675, 666.972 141.395 C 668.659 128.776, 664.853 109.410, 659.880 105.308 C 656.556 102.566, 653.337 102.086, 649.904 103.819" stroke="none" fill="#d54a51" fill-rule="evenodd"/><path d="M 243.500 42.877 C 239.005 44.068, 232.781 47.504, 230.298 50.166 C 225.587 55.216, 223.767 63.615, 226.067 69.685 C 228.630 76.450, 234.059 79.713, 249.096 83.524 C 254.810 84.973, 260.051 86.627, 260.743 87.201 C 262.650 88.784, 262.248 92.797, 260.066 93.965 C 256.677 95.778, 244.472 95.190, 238.225 92.913 C 235.076 91.764, 231.825 90.636, 231 90.404 C 229.961 90.113, 228.645 91.888, 226.720 96.176 C 223.429 103.505, 223.643 103.912, 232.536 107.219 C 237.499 109.066, 240.597 109.443, 251 109.467 C 262.232 109.493, 263.956 109.257, 268 107.135 C 277.420 102.193, 281.489 95.910, 280.783 87.398 C 279.965 77.534, 274.473 73.258, 256.531 68.516 C 245.858 65.695, 244 64.734, 244 62.033 C 244 56.530, 256.695 55.071, 267.152 59.372 L 272.803 61.697 275.402 55.074 C 276.831 51.431, 278 48.156, 278 47.797 C 278 47.438, 275.413 46.153, 272.250 44.941 C 266.044 42.564, 249.237 41.358, 243.500 42.877 M 71 76 L 71 109 80.500 109 L 90 109 90 76 L 90 43 80.500 43 L 71 43 71 76 M 130 76 L 130 109 139.500 109 L 149 109 149 100.696 C 149 92.520, 149.054 92.340, 152.498 89.002 C 155.642 85.955, 156.122 85.778, 157.248 87.250 C 157.937 88.152, 162.100 93.414, 166.500 98.944 L 174.500 108.998 185.318 108.999 L 196.136 109 193.835 105.750 C 192.570 103.962, 186.464 96.026, 180.267 88.114 C 174.070 80.202, 169 73.326, 169 72.834 C 169 72.343, 174.512 65.863, 181.250 58.434 C 187.988 51.006, 193.650 44.494, 193.833 43.964 C 194.033 43.388, 190.176 43, 184.246 43 L 174.324 43 166.412 51.710 C 162.061 56.500, 156.375 62.687, 153.779 65.460 L 149.058 70.500 149.029 56.750 L 149 43 139.500 43 L 130 43 130 76 M 316 76 L 316 109 325.500 109 L 335 109 335 96 L 335 83 347.470 83 L 359.940 83 360.220 95.750 L 360.500 108.500 369.750 108.788 L 379 109.075 379 76.038 L 379 43 369.500 43 L 360 43 360 55.500 L 360 68 347.500 68 L 335 68 335 55.500 L 335 43 325.500 43 L 316 43 316 76 M 426.810 74.250 C 419.282 91.438, 412.816 106.304, 412.440 107.288 C 411.809 108.940, 412.492 109.054, 421.492 108.788 L 431.228 108.500 433.261 103 C 434.379 99.975, 435.790 97.154, 436.397 96.731 C 437.004 96.308, 443.345 96.083, 450.489 96.231 L 463.479 96.500 465.989 102.739 L 468.500 108.978 478.250 108.989 C 483.613 108.995, 488 108.782, 488 108.514 C 488 107.955, 475.770 80.096, 466.398 59.308 C 462.879 51.502, 460 44.639, 460 44.058 C 460 43.386, 456.437 43, 450.248 43 L 440.496 43 426.810 74.250 M 520.236 75.750 L 520.500 108.500 529.750 108.788 L 539 109.075 539 92.538 C 539 83.442, 539.337 76.035, 539.750 76.079 C 540.163 76.122, 546.575 83.536, 554 92.553 L 567.500 108.949 575.250 108.974 L 583 109 583 76 L 583 43 574.023 43 L 565.046 43 564.773 60.595 L 564.500 78.189 550.500 60.644 L 536.500 43.098 528.236 43.049 L 519.973 43 520.236 75.750 M 638.050 57.750 C 634.516 65.862, 628.110 80.460, 623.813 90.188 C 619.516 99.917, 616 108.129, 616 108.438 C 616 108.747, 620.223 109, 625.384 109 L 634.768 109 637.072 103.250 C 638.339 100.088, 639.854 97.169, 640.438 96.765 C 642.359 95.436, 666.652 95.868, 667.729 97.250 C 668.265 97.938, 669.534 100.862, 670.549 103.750 L 672.395 109 681.698 109 C 689.515 109, 691 108.747, 691 107.418 C 691 105.936, 688.106 98.886, 682.209 86 C 678.473 77.837, 671.383 61.677, 667.193 51.774 L 663.500 43.047 653.987 43.024 L 644.474 43 638.050 57.750 M 445.667 71.667 C 443.579 76.912, 442.070 81.403, 442.313 81.646 C 442.556 81.890, 446.138 81.956, 450.271 81.794 L 457.788 81.500 454.131 72.320 C 452.119 67.271, 450.246 62.913, 449.968 62.635 C 449.690 62.357, 447.754 66.421, 445.667 71.667 M 649.657 71.664 C 647.543 76.880, 646.025 81.359, 646.284 81.618 C 646.543 81.877, 650.138 81.956, 654.271 81.794 L 661.788 81.500 658.131 72.320 C 656.119 67.271, 654.255 62.925, 653.987 62.661 C 653.719 62.398, 651.770 66.449, 649.657 71.664" stroke="none" fill="#0e3146" fill-rule="evenodd"/></svg>